<?xml version="1.0" encoding="UTF-8"?>
<svg version="1.1" viewBox="0 0 1600 1600" width="1280" height="1280" xmlns="http://www.w3.org/2000/svg">
<path transform="translate(0)" d="m0 0h1600v1600h-1600v-1600z" fill="#FCFDFF"/>
<path transform="translate(1186 692)" d="m0 0c0.818 0.00719 1.64 0.0144 2.48 0.0218 0.838 4.58e-4 1.68 9.16e-4 2.54 0.00139 1.77 0.00302 3.55 0.0109 5.32 0.0233 2.72 0.0183 5.45 0.0205 8.17 0.0203 1.72 0.00491 3.44 0.0107 5.16 0.0176 0.82 0.00111 1.64 0.00223 2.48 0.00337 5.74 0.0485 5.74 0.0485 6.86 1.16 0.114 2.39 0.165 4.75 0.174 7.14 0.00669 0.748 0.0134 1.5 0.0203 2.27 0.0141 1.63 0.026 3.27 0.0359 4.9 0.0164 2.6 0.0397 5.19 0.0649 7.79 0.0707 7.38 0.13 14.8 0.182 22.2 0.0321 4.51 0.0735 9.03 0.12 13.5 0.0159 1.71 0.0283 3.42 0.0369 5.13 0.0871 17 1.11 30.8 10.5 45.4 9.88 9.24 20.8 12.2 34 11.9 10-0.625 16.7-4.91 23.6-12.1 9.36-11.3 8.82-24.9 8.78-38.8 0.00992-1.97 0.0219-3.95 0.0357-5.92 0.0322-5.16 0.0427-10.3 0.0468-15.5 0.0088-8.29 0.0441-16.6 0.0922-24.9 0.0126-2.89 0.0118-5.79 0.00972-8.68 0.00658-1.76 0.0136-3.52 0.0211-5.28-0.00412-0.806-0.00825-1.61-0.0125-2.44 0.0406-5.54 0.0406-5.54 2.27-7.76 2.86-0.188 5.62-0.256 8.47-0.23 0.838 4.58e-4 1.68 9.16e-4 2.54 0.00139 1.77 0.00302 3.55 0.0109 5.32 0.0233 2.72 0.0183 5.45 0.0205 8.17 0.0203 1.72 0.00491 3.44 0.0107 5.16 0.0176 0.82 0.00111 1.64 0.00223 2.48 0.00337 5.74 0.0485 5.74 0.0485 6.86 1.16 0.114 2.35 0.165 4.68 0.174 7.04 0.00669 0.737 0.0134 1.47 0.0203 2.23 0.0141 1.61 0.026 3.22 0.0359 4.82 0.0164 2.56 0.0397 5.12 0.0649 7.67 0.0707 7.28 0.13 14.6 0.182 21.8 0.0321 4.45 0.0735 8.9 0.12 13.3 0.0158 1.68 0.0282 3.37 0.0369 5.05-0.223 21.4-0.223 21.4 7.37 41 0.397 0.621 0.794 1.24 1.2 1.88 5.39 7.24 15.2 12.9 23.8 15.1 11.9 1.08 21.9-0.0119 31.8-7.25 8.11-6.84 14.3-13.9 15.5-24.9 0.382-6.11 0.329-12.2 0.312-18.4 0.00992-1.97 0.0219-3.95 0.0357-5.92 0.0322-5.17 0.0427-10.3 0.0468-15.5 0.0088-8.3 0.0441-16.6 0.0922-24.9 0.0126-2.9 0.0118-5.79 0.00972-8.69 0.00658-1.76 0.0136-3.53 0.0211-5.29-0.00619-1.21-0.00619-1.21-0.0125-2.45 0.0406-5.55 0.0406-5.55 2.27-7.77 2.64-0.187 5.18-0.256 7.82-0.23 0.772 4.58e-4 1.54 9.16e-4 2.34 0.00139 1.63 0.00302 3.26 0.0109 4.89 0.0233 2.51 0.0183 5.01 0.0205 7.52 0.0203 1.58 0.00491 3.17 0.0107 4.75 0.0176 1.13 0.00167 1.13 0.00167 2.29 0.00337 5.28 0.0485 5.28 0.0485 6.4 1.16 0.111 2.75 0.157 5.48 0.161 8.23 0.00496 0.864 0.00993 1.73 0.015 2.62 0.0147 2.88 0.0214 5.75 0.0269 8.63 0.00575 2 0.0115 4.01 0.0173 6.01 0.0105 4.22 0.0164 8.43 0.0198 12.6 0.00544 5.36 0.0294 10.7 0.058 16.1 0.0188 4.15 0.0238 8.29 0.0254 12.4 3e-3 1.97 0.0109 3.95 0.0242 5.92 0.149 24-4.12 45-21.1 63.2-17 16.4-37.9 23.5-61.3 23.2-19.7-0.916-36.2-8.11-51.6-20.2-2.21-1.83-2.21-1.83-4.36-2.82-0.886 0.701-1.77 1.4-2.68 2.12-19.6 15.2-41.4 23.3-66.5 20.2-23.1-3.44-43-14.6-57.6-33-12.2-17-14.9-34.2-14.7-54.5 0.00239-2.02 0.00329-4.03 0.00278-6.05 0.00311-4.19 0.0195-8.38 0.0465-12.6 0.0342-5.38 0.0416-10.8 0.0401-16.1 5.42e-4 -4.15 0.0115-8.29 0.026-12.4 0.00637-1.99 0.0103-3.97 0.0118-5.96 0.00432-2.76 0.0218-5.52 0.0432-8.28-9.06e-4 -0.822-0.00181-1.64-0.00275-2.49 0.0799-7.01 1.29-8.09 8.29-8.12z" fill="#A30F81"/>
<path transform="translate(1137 708)" d="m0 0c9.11 7.85 15.6 16.7 21.6 27.1 0.411 0.686 0.822 1.37 1.25 2.08 8.6 15.4 11.3 37.2 6.59 54.1-0.276 0.942-0.552 1.88-0.836 2.86-0.29 1.21-0.29 1.21-0.586 2.45-4.6 18.1-16.8 33.7-32.4 43.6-9.57 5.69-18.9 9.54-30 11-1.23 0.164-2.46 0.327-3.73 0.496-21.9 2.13-43.8-3.67-61.3-17.2-1.69-1.42-3.35-2.85-5-4.31-0.92-0.813-1.84-1.63-2.79-2.46-12.2-11.4-21.4-27.9-22.3-44.9-0.329-10.8-0.649-21.4 3.12-31.7 0.34-0.954 0.681-1.91 1.03-2.89 8.45-21.8 22.4-38.6 43.8-48.8 27.8-11.9 57.2-10.2 81.6 8.53z" fill="#A30F81"/>
<path transform="translate(610 707)" d="m0 0c16.5 12.9 28.6 32.7 31.4 53.5 2.34 22.7 0.133 43.3-14.4 61.7-14.7 17.8-33.6 27.8-56.5 30.2-22.8 1.07-43.2-5.68-61.1-19.9-0.782-0.616-1.56-1.23-2.37-1.87-9.43-7.87-16.3-17.7-20.6-29.1-0.38-0.995-0.761-1.99-1.15-3.02-2.93-8.47-5.78-20.2-2.85-29-0.0825-1.22-0.165-2.43-0.25-3.69-0.112-17.3 11-35 22.2-47.3 0.971-1.09 0.971-1.09 1.96-2.21 26.7-28.5 72.5-32.2 104-9.25z" fill="#A30F81"/>
<path transform="translate(149 692)" d="m0 0c0.818 0.00719 1.64 0.0144 2.48 0.0218 0.838 4.58e-4 1.68 9.16e-4 2.54 0.00139 1.77 0.00302 3.55 0.0109 5.32 0.0233 2.72 0.0183 5.45 0.0205 8.17 0.0203 1.72 0.00491 3.44 0.0107 5.16 0.0176 0.82 0.00111 1.64 0.00223 2.48 0.00337 5.74 0.0485 5.74 0.0485 6.86 1.16 0.104 2.61 0.144 5.19 0.142 7.8 0.00347 0.818 0.00695 1.64 0.0105 2.48 0.00737 1.78 0.0127 3.57 0.0163 5.35 0.00716 2.83 0.0228 5.67 0.0413 8.5 0.0525 8.06 0.1 16.1 0.116 24.2 0.0102 4.93 0.0397 9.86 0.0813 14.8 0.0122 1.87 0.0174 3.74 0.0152 5.61-0.0127 14.1 0.542 28.3 10.6 39.3 9.52 8.53 18.3 11.6 31 11.2 11.1-0.801 19.4-5.78 27-13.7 6.29-7.72 8.16-15.2 8.19-25 0.01-1.28 0.01-1.28 0.0203-2.59 0.014-1.86 0.0259-3.71 0.0359-5.57 0.0164-2.93 0.0397-5.87 0.0649-8.8 0.0708-8.34 0.131-16.7 0.182-25 0.0317-5.1 0.073-10.2 0.12-15.3 0.0161-1.95 0.0284-3.89 0.0369-5.84 0.0121-2.72 0.0362-5.43 0.0631-8.14 5.89e-4 -0.809 0.00118-1.62 0.00179-2.45 0.0733-5.56 0.0733-5.56 2.3-7.79 2.86-0.188 5.62-0.256 8.47-0.23 0.838 4.58e-4 1.68 9.16e-4 2.54 0.00139 1.77 0.00302 3.55 0.0109 5.32 0.0233 2.72 0.0183 5.45 0.0205 8.17 0.0203 1.72 0.00491 3.44 0.0107 5.16 0.0176 0.82 0.00111 1.64 0.00223 2.48 0.00337 5.74 0.0485 5.74 0.0485 6.86 1.16 0.104 2.14 0.135 4.29 0.14 6.44 0.00297 0.68 0.00594 1.36 9e-3 2.06 0.00872 2.3 0.0102 4.59 0.0117 6.89 0.00463 1.64 0.00965 3.28 0.015 4.92 0.0132 4.47 0.0196 8.95 0.024 13.4 0.00293 2.8 0.00703 5.6 0.0115 8.4 0.0137 8.77 0.0233 17.5 0.0272 26.3 0.00447 10.1 0.0219 20.2 0.051 30.3 0.0217 7.81 0.0317 15.6 0.033 23.4 0.00104 4.66 0.00685 9.32 0.0248 14 0.0166 4.4 0.0186 8.8 0.00986 13.2-7.63e-4 1.6 0.00348 3.21 0.0135 4.81 0.143 24.4-7.05 42.9-23.9 60.7-15 14.2-34.4 21.8-54.9 21.4-2.6-0.238-2.6-0.238-3.6-1.24-0.291-4.81-0.314-9.62-0.35-14.4-0.0166-1.62-0.0439-3.24-0.082-4.87-0.0547-2.33-0.0766-4.67-0.0913-7-0.0227-0.725-0.0453-1.45-0.0687-2.2 0.00864-2.05 0.00864-2.05 0.592-5.5 3.35-2.75 6.68-3.56 10.9-4.44 5.03-1.2 8.97-2.48 13.1-5.56 0.73-0.532 1.46-1.06 2.21-1.61 6.95-5.58 12.3-13.4 13.8-22.4 0.069-2.59 0.0943-5.16 0.0625-7.75-0.00451-0.697-0.00902-1.39-0.0137-2.11-0.0117-1.71-0.0297-3.42-0.0488-5.14-0.559 0.182-1.12 0.364-1.7 0.551-2.76 0.864-5.53 1.66-8.3 2.45-0.923 0.286-1.85 0.572-2.8 0.867-21.3 5.66-45.7 4.02-65-6.67-5.52-3.22-10.5-6.9-15.2-11.2-0.865-0.784-1.73-1.57-2.62-2.38-5.64-5.37-9.69-10.8-13.4-17.6-0.494-0.761-0.987-1.52-1.5-2.3-1.88-3.36-3.01-6.84-4.13-10.5-0.217-0.674-0.433-1.35-0.656-2.04-0.209-0.674-0.418-1.35-0.633-2.04-0.185-0.597-0.37-1.19-0.561-1.81-1.46-6.38-1.67-12.7-1.67-19.3-0.00336-0.856-0.00672-1.71-0.0102-2.59-0.00943-2.8-0.0114-5.61-0.0125-8.41-0.00322-1.96-0.00658-3.91-0.0101-5.87-0.00597-4.09-0.00784-8.17-0.00725-12.3 1.02e-4 -5.25-0.0136-10.5-0.0308-15.7-0.0111-4.03-0.0131-8.07-0.0126-12.1-0.00118-1.94-0.00562-3.87-0.0133-5.81-0.00975-2.7-0.00694-5.39-8.95e-4 -8.09-0.00562-0.803-0.0112-1.61-0.017-2.43 0.0399-6.96 1.34-7.97 8.25-8z" fill="#A30F81"/>
<path transform="translate(417,695)" d="m0 0c1.15 0.425 2.29 0.851 3.47 1.29 7.57 3.03 14.1 6.65 20.5 11.7 0.972 0.764 1.94 1.53 2.95 2.32 17.2 14.4 25.8 36.7 27.9 58.4 0.536 7.17 0.285 14.4 0.147 21.6-0.0262 1.79-0.0515 3.59-0.0758 5.38-0.0658 4.66-0.145 9.32-0.227 14-0.0817 4.78-0.151 9.56-0.221 14.3-0.139 9.34-0.291 18.7-0.453 28-5.68 0.0246-11.4 0.0428-17 0.0549-1.93 0.00504-3.87 0.0119-5.8 0.0205-2.77 0.0121-5.55 0.0178-8.32 0.0222-1.3 0.00774-1.3 0.00774-2.64 0.0156-2.07 1.95e-4 -4.14-0.0512-6.21-0.113-1.98-1.98-1.15-5.92-1.16-8.63-0.00508-0.8-0.0102-1.6-0.0154-2.42-0.0107-1.75-0.0193-3.49-0.0261-5.24-0.0118-2.77-0.0312-5.54-0.0531-8.31-0.0616-7.88-0.115-15.8-0.149-23.7-0.0211-4.82-0.0565-9.64-0.101-14.5-0.0141-1.83-0.0229-3.66-0.0261-5.49-0.0323-16.8-1.55-28.8-13.2-41.7-6.22-5.98-14.2-8.31-22.7-8.68-9.82 0.339-18.6 4-26 10.3-1.59 1.23-1.59 1.23-4.59 2.23-0.707 1.65-1.37 3.32-2 5-0.619 0.825-1.24 1.65-1.88 2.5-7.17 10.7-6.73 23.4-6.73 35.7-0.015 1.82-0.0317 3.64-0.0501 5.46-0.0433 4.75-0.0636 9.49-0.0787 14.2-0.0197 4.86-0.0616 9.72-0.102 14.6-0.0749 9.5-0.125 19-0.16 28.5-2.86 0.00499-5.73 0.00861-8.59 0.0115-0.804 0.00154-1.61 0.00308-2.44 0.00466-6.35 0.00475-12.7-0.147-19-0.454-0.96-0.0393-1.92-0.0786-2.91-0.119-0.908-0.0419-1.82-0.0838-2.75-0.127-1.2-0.055-1.2-0.055-2.43-0.111-1.85-0.205-1.85-0.205-2.85-1.21-0.111-2.51-0.157-4.99-0.161-7.49-0.00496-0.786-0.00993-1.57-0.015-2.38-0.0147-2.62-0.0214-5.23-0.0269-7.85-0.00575-1.82-0.0115-3.65-0.0173-5.47-0.0105-3.84-0.0164-7.68-0.0198-11.5-0.00544-4.88-0.0294-9.76-0.058-14.6-0.0188-3.78-0.0238-7.55-0.0254-11.3-3e-3 -1.8-0.0109-3.59-0.0242-5.39-0.175-25.6 6.16-47.8 24.1-66.7 0.733-0.736 1.47-1.47 2.22-2.23 0.661-0.684 1.32-1.37 2-2.07 19.4-18.7 52.4-27.6 78-17.9z" fill="#8F0C80"/>
<path transform="translate(659 692)" d="m0 0c0.818 0.00719 1.64 0.0144 2.48 0.0218 0.838 4.58e-4 1.68 9.16e-4 2.54 0.00139 1.77 0.00302 3.55 0.0109 5.32 0.0233 2.72 0.0183 5.45 0.0205 8.17 0.0203 1.72 0.00491 3.44 0.0107 5.16 0.0176 0.82 0.00111 1.64 0.00223 2.48 0.00337 5.74 0.0485 5.74 0.0485 6.86 1.16 0.16 2.88 0.26 5.74 0.316 8.63 0.0208 0.864 0.0416 1.73 0.063 2.62 0.0656 2.77 0.124 5.54 0.183 8.31 0.0432 1.87 0.0868 3.75 0.131 5.62 0.107 4.6 0.209 9.21 0.307 13.8 1.76 0.0376 1.76 0.0376 3.56 0.0759 4.35 0.0939 8.7 0.194 13 0.296 1.88 0.0434 3.77 0.0851 5.65 0.125 2.7 0.0575 5.41 0.121 8.11 0.186 0.848 0.0167 1.7 0.0334 2.57 0.0506 5.95 0.152 5.95 0.152 7.06 1.27 0.0886 2.88 0.115 5.74 0.0977 8.63-0.00101 0.766-0.00201 1.53-0.00305 2.32-0.00525 2.87-0.0192 5.74-0.0321 8.61-0.0206 6.41-0.0412 12.8-0.0625 19.4-13.2 0.33-26.4 0.66-40 1 1.06 10.6 2.92 20.4 11 28 11.6 8.58 21.7 11.3 36 10 6.44-1.5 11.4-4.65 16.4-8.83 1.59-1.17 1.59-1.17 3.59-1.17 1.48 1.54 1.48 1.54 3.19 3.62 2.86 3.38 5.85 6.2 9.25 9.01 2.16 1.89 3.81 4.1 5.56 6.37 1.65 1.69 3.31 3.36 5 5 0.66 0.66 1.32 1.32 2 2-0.154 3.13-0.674 4.63-2.76 6.99-17.1 13.6-38.1 18.8-59.7 16.4-17.2-2.73-31.1-9.2-44.5-20.4-0.677-0.531-1.35-1.06-2.05-1.61-13.6-11.1-21.7-28.1-23.9-45.4-0.00238-2-0.00287-4 0-6-0.33-0.66-0.66-1.32-1-2-0.103-2.58-0.147-5.14-0.145-7.72-0.00336-0.797-0.00672-1.59-0.0102-2.41-0.00952-2.64-0.0115-5.28-0.0125-7.93-0.00321-1.83-0.00658-3.66-0.0101-5.49-0.00599-3.84-0.00784-7.68-0.00725-11.5 1.02e-4 -4.93-0.0136-9.86-0.0308-14.8-0.0111-3.78-0.0131-7.56-0.0126-11.3-0.00118-1.82-0.00562-3.64-0.0133-5.45-0.00975-2.54-0.00694-5.08-8.95e-4 -7.61-0.00562-0.756-0.0112-1.51-0.017-2.29 0.0414-6.81 1.56-7.66 8.25-7.68z" fill="#A30F81"/>
<path transform="translate(945,654)" d="m0 0c1 1 1 1 1.11 4.51-1.59e-4 1.56-0.00585 3.12-0.0159 4.68-0.00141 0.82-0.00283 1.64-0.00429 2.48-0.00562 2.63-0.0182 5.26-0.0309 7.89-0.00501 1.78-0.00958 3.56-0.0137 5.33-0.011 4.37-0.0283 8.74-0.0488 13.1-0.719 0.182-1.44 0.365-2.18 0.553-5.34 1.4-10.3 2.86-15.3 5.38-0.968 0.483-1.94 0.967-2.93 1.46-2.64 1.6-4.48 3.41-6.63 5.6h-2c-0.278 0.579-0.557 1.16-0.844 1.75-1.11 2.16-2.34 4.15-3.66 6.18-5.39 8.58-5.65 16.5-5.56 26.4 0.00451 1.02 0.00902 2.04 0.0137 3.1 0.0117 2.51 0.0281 5.02 0.0488 7.53 1.15 0.0251 2.29 0.0501 3.47 0.0759 4.24 0.0939 8.47 0.194 12.7 0.296 1.84 0.0434 3.67 0.0851 5.51 0.125 2.63 0.0575 5.27 0.121 7.9 0.186 0.826 0.0167 1.65 0.0334 2.5 0.0506 5.79 0.152 5.79 0.152 6.91 1.27 0.968 5.92 1.1 11.8 1.12 17.8 0.00689 1.07 0.00689 1.07 0.0139 2.16-0.0187 6.72-0.569 13.4-1.14 20.1-1.72 0.0376-1.72 0.0376-3.47 0.0759-4.24 0.0939-8.47 0.194-12.7 0.296-1.84 0.0434-3.67 0.0851-5.51 0.125-2.63 0.0575-5.27 0.121-7.9 0.186-0.826 0.0167-1.65 0.0334-2.5 0.0506-3.76-0.256-3.76-0.256-6.91 1.27-0.123 1.81-0.178 3.62-0.205 5.44-0.0299 1.74-0.0299 1.74-0.0604 3.52-0.0251 1.9-0.0251 1.9-0.0506 3.83-0.0208 1.29-0.0416 2.57-0.063 3.9-0.0553 3.42-0.105 6.85-0.153 10.3-0.0502 3.49-0.106 6.98-0.161 10.5-0.108 6.86-0.209 13.7-0.307 20.6-3.65 0.0129-7.3 0.0205-10.9 0.0273-1.53 0.0055-1.53 0.0055-3.1 0.0111-7.99 0.0112-16-0.0605-24-1.04-1.59-1.59-1.13-3.23-1.13-5.44-0.00426-0.96-0.00853-1.92-0.0129-2.91 4.53e-4 -1.06 9.06e-4 -2.12 0.00137-3.22-0.00336-1.11-0.00672-2.22-0.0102-3.37-0.00956-3.71-0.0115-7.41-0.0125-11.1-0.00321-2.58-0.00658-5.16-0.0101-7.74-0.00601-5.43-0.00788-10.9-0.00725-16.3 5.96e-4 -6.23-0.00986-12.5-0.0257-18.7-0.0148-6.02-0.0182-12-0.0176-18.1-0.00117-2.54-0.00554-5.09-0.0133-7.63-0.0821-29.7 1.57-57.1 23.2-79.5 14.7-13.9 34.4-23.8 55-23z" fill="#8F0C80"/>
<path transform="translate(996,654)" d="m0 0c1.61 1.61 1.14 3.34 1.16 5.57 0.0169 1.48 0.0169 1.48 0.0341 3 0.00732 1.1 0.0146 2.2 0.0222 3.33 0.0115 1.15 0.023 2.3 0.0348 3.49 0.0305 3.19 0.0565 6.38 0.0802 9.57 0.0207 2.69 0.0446 5.39 0.0686 8.08 0.0704 7.95 0.13 15.9 0.188 23.8 0.0269 3.73 0.0553 7.46 0.0844 11.2 0.334 43 0.47 86-0.677 129-5.68 0.0246-11.4 0.0428-17 0.0549-1.93 0.00504-3.87 0.0119-5.8 0.0205-2.77 0.0121-5.55 0.0178-8.32 0.0222-1.3 0.00774-1.3 0.00774-2.64 0.0156-2.07 1.95e-4 -4.14-0.0512-6.21-0.113-1.72-1.72-1.13-3.91-1.14-6.2 0.00155-0.751 0.0031-1.5 0.00469-2.27-0.00227-0.792-0.00453-1.58-0.00687-2.4-0.00637-2.67-0.00551-5.35-0.00469-8.02-0.00299-1.91-0.00639-3.82-0.0102-5.72-0.00886-5.2-0.0112-10.4-0.0118-15.6-9.47e-4 -4.33-0.00462-8.66-0.00817-13-0.00815-10.2-0.0106-20.4-0.00987-30.6 6.01e-4 -10.6-0.00995-21.1-0.0257-31.7-0.0131-9.05-0.0184-18.1-0.0178-27.1 2.56e-4 -5.41-0.00263-10.8-0.0132-16.2-0.00964-5.09-0.00979-10.2-0.00248-15.3 0.00105-1.87-0.00134-3.74-0.00736-5.61-0.00766-2.55-0.00312-5.09 0.00463-7.64-0.00514-0.748-0.0103-1.5-0.0156-2.27 0.0346-5.1 0.0346-5.1 2.26-7.33 12.1-1.81 25.9-2.14 38 0z" fill="#8F0C80"/>
<path transform="translate(610 707)" d="m0 0c15.4 12.1 28.3 31.3 30.9 50.9 0.25 2.84 0.44 5.67 0.543 8.52-0.592 0.17-1.18 0.34-1.79 0.516-3.81 1.17-6.71 2.08-9.83 4.61-3.57 2.82-7.02 3.07-11.5 2.7-1.96-0.245-3.92-0.535-5.88-0.828h-3c-1.16 1.05-1.16 1.05-2 3h-2c-0.33-0.66-0.66-1.32-1-2-0.99 1.98-0.99 1.98-2 4-2.38-3.57-2.38-5.7-2.75-9.94-1.12-10.1-5.27-20.4-13.2-27.1-9.5-6.16-17.7-8.08-29-7-12.5 3.18-22.1 10.1-29 21-3.23 6.23-4.55 12-5 19-0.99-0.495-0.99-0.495-2-1-3.15 0.181-6.28 0.45-9.41 0.771-3.79 0.324-6.37 0.394-9.59-1.77 2.48-0.495 2.48-0.495 5-1-0.915-0.0606-1.83-0.121-2.77-0.184-1.78-0.126-1.78-0.126-3.6-0.254-1.18-0.0812-2.37-0.162-3.59-0.246-3.04-0.316-3.04-0.316-5.04-1.32v2c1.65 0.66 3.3 1.32 5 2-3 1-3 1-5 1-0.33 0.99-0.66 1.98-1 3-1.32-0.33-2.64-0.66-4-1 0-2.62 0.313-4.51 1-7l-4 2v-2h-2c-1.46-16.3 7.57-33.5 17.5-45.9 1.48-1.7 2.98-3.39 4.5-5.06 0.971-1.09 0.971-1.09 1.96-2.21 26.7-28.5 72.5-32.2 104-9.25z" fill="#8F0C80"/>
<path transform="translate(1137 708)" d="m0 0c9.11 7.85 15.6 16.7 21.6 27.1 0.411 0.686 0.822 1.37 1.25 2.08 4.37 7.83 7.14 18 6.75 26.9-1.18 0.402-1.18 0.402-2.38 0.812-2.91 1.04-2.91 1.04-4.62 4.19h-2c-0.371 0.959-0.371 0.959-0.75 1.94-1.25 2.06-1.25 2.06-3.38 2.81-0.619 0.0825-1.24 0.165-1.88 0.25v-2c0.99-0.33 1.98-0.66 3-1-0.784 0.186-1.57 0.371-2.38 0.562-2.62 0.438-2.62 0.438-4.62-0.562-2.25-0.0144-4.5 0.0619-6.75 0.188-1.21 0.0554-2.42 0.111-3.67 0.168-4.24 0.764-6.2 2.06-9.58 4.64-0.164-0.815-0.164-0.815-0.332-1.65-2.82-13.6-6.1-26.3-17.7-35.2-8.94-5.39-18.7-6.91-28.9-4.48-11.2 3.75-20.6 9.51-26.6 19.8-3.28 6.63-4.68 13.2-5.53 20.5h-3v-2c-0.675 0.0838-1.35 0.168-2.05 0.254-0.892 0.102-1.78 0.204-2.7 0.309-1.32 0.157-1.32 0.157-2.67 0.316-2.49 0.117-4.25-0.00301-6.58-0.879-0.495-0.99-0.495-0.99-1-2-3.89-0.211-3.89-0.211-7 1-2.69-0.438-2.69-0.438-5-1-0.495 0.99-0.495 0.99-1 2v-5c-3.47 0.495-3.47 0.495-7 1-0.33 1.32-0.66 2.64-1 4h-2c-1.12-18.8 7.74-38.7 19.9-52.8 28.5-31.5 75.4-38.5 110-12.3z" fill="#8F0C80"/>
<path transform="translate(659 692)" d="m0 0c0.818 0.00719 1.64 0.0144 2.48 0.0218 0.838 4.58e-4 1.68 9.16e-4 2.54 0.00139 1.77 0.00302 3.55 0.0109 5.32 0.0233 2.72 0.0183 5.45 0.0205 8.17 0.0203 1.72 0.00491 3.44 0.0107 5.16 0.0176 0.82 0.00111 1.64 0.00223 2.48 0.00337 5.74 0.0485 5.74 0.0485 6.86 1.16 0.16 2.88 0.26 5.74 0.316 8.63 0.0208 0.864 0.0416 1.73 0.063 2.62 0.0656 2.77 0.124 5.54 0.183 8.31 0.0432 1.87 0.0868 3.75 0.131 5.62 0.107 4.6 0.209 9.21 0.307 13.8 1.76 0.0376 1.76 0.0376 3.56 0.0759 4.35 0.0939 8.7 0.194 13 0.296 1.88 0.0434 3.77 0.0851 5.65 0.125 2.7 0.0575 5.41 0.121 8.11 0.186 0.848 0.0167 1.7 0.0334 2.57 0.0506 5.95 0.152 5.95 0.152 7.06 1.27 0.0886 2.88 0.115 5.74 0.0977 8.63-0.00101 0.766-0.00201 1.53-0.00305 2.32-0.00525 2.87-0.0192 5.74-0.0321 8.61-0.0206 6.41-0.0412 12.8-0.0625 19.4-13.2 0.33-26.4 0.66-40 1-0.495 1.49-0.495 1.49-1 3-0.66-0.99-1.32-1.98-2-3-0.99 0.66-1.98 1.32-3 2-7.46 0.124-14.8-1.17-22-3 0.99-0.99 1.98-1.98 3-3h-8v3c-5.27 3.22-5.27 3.22-7 4-0.66-0.33-1.32-0.66-2-1-0.0463-10.7-0.0818-21.3-0.104-32-0.0105-4.95-0.0246-9.9-0.0473-14.8-0.0217-4.77-0.0337-9.54-0.0389-14.3-0.0037-1.82-0.0109-3.65-0.0217-5.47-0.0144-2.55-0.0165-5.1-0.0156-7.64-0.00719-0.76-0.0144-1.52-0.0218-2.3 0.0271-6.82 1.54-7.68 8.24-7.7z" fill="#8F0C80"/>
<path transform="translate(1110 739)" d="m0 0c9.33 7.68 14.9 17.4 16.6 29.3 1.01 11-0.575 21.8-7.2 30.9-6 6.98-12.5 12.6-21.8 14.1-14.6 0.966-25.5-1.41-37-11-7.34-6.49-11.1-14.8-12.5-24.5-0.476-11.6 3.12-21.8 10.6-30.6 13.3-13.7 34.6-19.6 51.3-8.27z" fill="#FCFDFF"/>
<path transform="translate(584 738)" d="m0 0c8.32 5.89 14.6 15.5 16.4 25.5 1.13 12.6 1.2 24.7-6.56 35.2-5.55 6.49-12.1 11.6-20.4 13.8-15.2 1.16-26.1-0.817-38-11-8.3-7.95-12.3-16.5-13-28 0.649-13.1 6.42-23.2 16-32 14-10.4 30.3-12.5 45.6-3.5z" fill="#FCFDFF"/>
<path transform="translate(942,757)" d="m0 0c0.99 0.66 1.98 1.32 3 2-0.33 0.66-0.66 1.32-1 2h3c0.0276 2.73 0.0471 5.46 0.0625 8.19 0.00838 0.75 0.0168 1.5 0.0254 2.27 0.0288 6.88-0.494 13.7-1.09 20.5-1.72 0.0376-1.72 0.0376-3.47 0.0759-4.24 0.0939-8.47 0.194-12.7 0.296-1.84 0.0434-3.67 0.0851-5.51 0.125-2.63 0.0575-5.27 0.121-7.9 0.186-0.826 0.0167-1.65 0.0334-2.5 0.0506-3.76-0.256-3.76-0.256-6.91 1.27-0.123 1.81-0.178 3.62-0.205 5.44-0.0199 1.16-0.0399 2.32-0.0604 3.52-0.0251 1.9-0.0251 1.9-0.0506 3.83-0.0208 1.29-0.0416 2.57-0.063 3.9-0.0553 3.42-0.105 6.85-0.153 10.3-0.0502 3.49-0.106 6.98-0.161 10.5-0.108 6.86-0.209 13.7-0.307 20.6-3.65 0.0129-7.3 0.0205-10.9 0.0273-1.53 0.0055-1.53 0.0055-3.1 0.0111-7.99 0.0112-16-0.0605-24-1.04-1.7-1.7-1.12-3.81-1.12-6.07 0.0036-0.726 0.00719-1.45 0.0109-2.2-1.46e-4 -0.761-2.92e-4 -1.52-4.43e-4 -2.31 6.99e-4 -2.53 0.00849-5.05 0.0163-7.58 0.00186-1.75 0.00329-3.49 0.00429-5.24 0.00383-4.61 0.0137-9.22 0.0247-13.8 0.0102-4.7 0.0148-9.4 0.0198-14.1 0.0107-9.23 0.0278-18.5 0.0488-27.7 2.48 0.495 2.48 0.495 5 1 0.33 1.32 0.66 2.64 1 4 0.33-0.66 0.66-1.32 1-2h2v-3c6.69-0.624 13.3-1.13 20-1v3h16c-3.63-0.33-7.26-0.66-11-1 0.33-0.99 0.66-1.98 1-3 1.73 0.142 3.46 0.289 5.19 0.438 1.44 0.122 1.44 0.122 2.92 0.246 2.68 0.293 5.26 0.743 7.89 1.32-0.33 0.66-0.66 1.32-1 2 1.65 0.33 3.3 0.66 5 1v4c4.72 0.925 7.67 1.23 12-1v-7h2v-2h-2v-2c3.88 0.875 3.88 0.875 5 2 0.144-1.28 0.289-2.56 0.438-3.88 0.269-2.38 0.485-3.97 1.56-6.12l-2-1c0.99-0.33 1.98-0.66 3-1z" fill="#A30F81"/>
<path transform="translate(319 770)" d="m0 0c0.681 0.351 1.36 0.701 2.06 1.06h4v-2h13c-0.33 0.66-0.66 1.32-1 2 0.664-0.0232 1.33-0.0464 2.01-0.0703 0.883-0.018 1.77-0.0361 2.68-0.0547 0.87-0.0232 1.74-0.0464 2.64-0.0703 2.68 0.195 2.68 0.195 7.68 2.2v79c-21 0-21 0-30.1-0.438-0.96-0.0393-1.92-0.0786-2.91-0.119-0.908-0.0419-1.82-0.0838-2.75-0.127-0.802-0.0367-1.6-0.0733-2.43-0.111-1.85-0.205-1.85-0.205-2.85-1.21-0.095-2.4-0.126-4.78-0.114-7.18-1.46e-4 -0.751-2.92e-4 -1.5-4.43e-4 -2.28 6.99e-4 -2.49 0.00849-4.99 0.0163-7.48 0.00186-1.72 0.00329-3.45 0.00429-5.17 0.00383-4.55 0.0137-9.1 0.0247-13.6 0.0102-4.64 0.0148-9.28 0.0198-13.9 0.0107-9.11 0.0278-18.2 0.0488-27.3 0.66 0.66 1.32 1.32 2 2 0.33-1.65 0.66-3.3 1-5 3-1 3-1 4.94-0.0625z" fill="#A30F81"/>
<path transform="translate(149 692)" d="m0 0c0.818 0.00719 1.64 0.0144 2.48 0.0218 0.838 4.58e-4 1.68 9.16e-4 2.54 0.00139 1.77 0.00302 3.55 0.0109 5.32 0.0233 2.72 0.0183 5.45 0.0205 8.17 0.0203 1.72 0.00491 3.44 0.0107 5.16 0.0176 0.82 0.00111 1.64 0.00223 2.48 0.00337 5.74 0.0485 5.74 0.0485 6.86 1.16 0.0951 2.56 0.126 5.08 0.114 7.64 1.46e-4 0.8 2.92e-4 1.6 4.43e-4 2.42-6.99e-4 2.66-0.00849 5.31-0.0163 7.97-0.00186 1.84-0.00329 3.67-0.00429 5.51-0.00383 4.84-0.0137 9.69-0.0247 14.5-0.0102 4.94-0.0148 9.88-0.0198 14.8-0.0107 9.7-0.0278 19.4-0.0488 29.1-0.439-0.488-0.878-0.976-1.33-1.48-2.43-2.21-4.25-1.85-7.48-1.77-1.61 0.0387-1.61 0.0387-3.25 0.0781-3.04 0.178-5.94 0.628-8.93 1.17-2.67 0.0832-5.32 0.0461-8 0 0.495-0.99 0.495-0.99 1-2-4.46 0.495-4.46 0.495-9 1v7h-2v3h-2c-0.0463-11.4-0.0818-22.9-0.104-34.3-0.0105-5.31-0.0246-10.6-0.0473-15.9-0.0217-5.12-0.0337-10.2-0.0389-15.4-0.00371-1.96-0.0109-3.92-0.0217-5.87-0.0144-2.73-0.0165-5.47-0.0156-8.2-0.00719-0.816-0.0144-1.63-0.0218-2.47 0.0259-7 1.27-8.06 8.24-8.09z" fill="#8F0C80"/>
<path transform="translate(1305 692)" d="m0 0c0.818 0.00719 1.64 0.0144 2.48 0.0218 0.838 4.58e-4 1.68 9.16e-4 2.54 0.00139 1.77 0.00302 3.55 0.0109 5.32 0.0233 2.72 0.0183 5.45 0.0205 8.17 0.0203 1.72 0.00491 3.44 0.0107 5.16 0.0176 0.82 0.00111 1.64 0.00223 2.48 0.00337 5.74 0.0485 5.74 0.0485 6.86 1.16 0.095 2.43 0.126 4.84 0.114 7.27 1.46e-4 0.761 2.92e-4 1.52 4.43e-4 2.31-6.99e-4 2.53-0.00849 5.05-0.0163 7.58-0.00186 1.75-0.00329 3.49-0.00429 5.24-0.00383 4.61-0.0137 9.22-0.0247 13.8-0.0102 4.7-0.0148 9.4-0.0198 14.1-0.0107 9.23-0.0278 18.5-0.0488 27.7-1.09-0.177-2.19-0.353-3.32-0.535-3.78-0.477-5.9-0.135-9.5 0.972-4.88 1.36-9.03 1.72-14.1 1.54-2.7 0.0348-4.7 0.886-7.12 2.03h-4c-0.66 1.32-1.32 2.64-2 4-1.05-4.3-1.15-8.48-1.15-12.9-0.00336-0.778-0.00672-1.56-0.0102-2.36-0.00947-2.56-0.0115-5.12-0.0125-7.68-0.00321-1.78-0.00658-3.56-0.0101-5.35-0.00598-3.73-0.00784-7.46-0.00725-11.2 1.02e-4 -4.79-0.0136-9.57-0.0308-14.4-0.0111-3.68-0.0131-7.35-0.0126-11-0.00118-1.77-0.00562-3.53-0.0133-5.3-0.00975-2.46-0.00694-4.92-8.95e-4 -7.38-0.00562-0.733-0.0112-1.47-0.017-2.22 0.0422-6.73 1.68-7.5 8.25-7.52z" fill="#8F0C80"/>
<path transform="translate(470,769)" d="m0 0v2h2c-0.33 26.7-0.66 53.5-1 81h-40c-1.67-1.67-1.12-3.71-1.12-5.95 0.0036-0.707 0.00719-1.41 0.0109-2.14-1.46e-4 -0.741-2.92e-4 -1.48-4.43e-4 -2.25 6.99e-4 -2.46 0.00849-4.92 0.0163-7.39 0.00186-1.7 0.00329-3.41 0.00429-5.11 0.00383-4.49 0.0137-8.98 0.0247-13.5 0.0102-4.58 0.0148-9.16 0.0198-13.7 0.0107-8.99 0.0278-18 0.0488-27 0.66 0.66 1.32 1.32 2 2 0.66-1.65 1.32-3.3 2-5 2.08-0.169 4.17-0.335 6.25-0.5 1.16-0.0928 2.32-0.186 3.52-0.281 2.41-0.163 4.82-0.219 7.23-0.219v2c0.825-0.289 1.65-0.577 2.5-0.875 10.8-3.48 10.8-3.48 16.5-3.12z" fill="#A30F81"/>
<path transform="translate(268 692)" d="m0 0c0.818 0.00719 1.64 0.0144 2.48 0.0218 0.838 4.58e-4 1.68 9.16e-4 2.54 0.00139 1.77 0.00302 3.55 0.0109 5.32 0.0233 2.72 0.0183 5.45 0.0205 8.17 0.0203 1.72 0.00491 3.44 0.0107 5.16 0.0176 0.82 0.00111 1.64 0.00223 2.48 0.00337 5.74 0.0485 5.74 0.0485 6.86 1.16 0.095 2.49 0.126 4.96 0.114 7.46 1.46e-4 0.78 2.92e-4 1.56 4.43e-4 2.36-6.99e-4 2.59-0.00849 5.18-0.0163 7.78-0.00186 1.79-0.00329 3.58-0.00429 5.38-0.00383 4.73-0.0137 9.45-0.0247 14.2-0.0102 4.82-0.0148 9.64-0.0198 14.5-0.0107 9.46-0.0278 18.9-0.0488 28.4-0.99-0.66-1.98-1.32-3-2-3.12 0.274-3.12 0.274-6.5 1-6.17 1.22-6.17 1.22-9.5-1v2h-7v-2h-7v2c-0.598 0.0825-1.2 0.165-1.81 0.25-2.78 0.955-3.62 2.32-5.19 4.75-1.25-3.87-1.15-7.74-1.15-11.8-0.00504-1.17-0.00504-1.17-0.0102-2.36-0.00949-2.57-0.0115-5.13-0.0125-7.7-0.00321-1.78-0.00658-3.57-0.0101-5.35-0.00598-3.73-0.00784-7.47-0.00725-11.2 1.02e-4 -4.79-0.0136-9.59-0.0308-14.4-0.0111-3.68-0.0131-7.36-0.0126-11-0.00118-1.77-0.00562-3.54-0.0133-5.3-0.00975-2.47-0.00694-4.93-8.95e-4 -7.4-0.00843-1.1-0.00843-1.1-0.017-2.23 0.0421-6.73 1.67-7.51 8.25-7.53z" fill="#8F0C80"/>
<path transform="translate(1186 692)" d="m0 0c0.818 0.00719 1.64 0.0144 2.48 0.0218 0.838 4.58e-4 1.68 9.16e-4 2.54 0.00139 1.77 0.00302 3.55 0.0109 5.32 0.0233 2.72 0.0183 5.45 0.0205 8.17 0.0203 1.72 0.00491 3.44 0.0107 5.16 0.0176 0.82 0.00111 1.64 0.00223 2.48 0.00337 5.74 0.0485 5.74 0.0485 6.86 1.16 0.125 2.59 0.186 5.15 0.205 7.73 0.0099 0.81 0.0198 1.62 0.03 2.45 0.0317 2.69 0.0564 5.38 0.0811 8.07 0.0206 1.86 0.0416 3.72 0.063 5.58 0.0553 4.9 0.105 9.81 0.153 14.7 0.0502 5 0.106 10 0.161 15 0.108 9.82 0.209 19.6 0.307 29.5l-2-2v-4c-0.99 0.33-1.98 0.66-3 1-1.37 0.0428-2.75 0.0406-4.12 0h-3.88c-0.33 0.33-0.66 0.66-1 1-1.85 0.0723-3.71 0.0838-5.56 0.0625-1.52-0.0135-1.52-0.0135-3.07-0.0273-0.782-0.0116-1.56-0.0232-2.37-0.0352 0.33-0.66 0.66-1.32 1-2-2.64-0.33-5.28-0.66-8-1-0.33 1.32-0.66 2.64-1 4-0.99-0.33-1.98-0.66-3-1-0.99 0.495-0.99 0.495-2 1-0.469 2.82-0.469 2.82-0.625 6.06-0.0748 1.1-0.15 2.21-0.227 3.35-0.049 0.855-0.098 1.71-0.148 2.59h-3c-0.0463-11.8-0.0818-23.7-0.104-35.5-0.0105-5.49-0.0246-11-0.0473-16.5-0.0217-5.3-0.0337-10.6-0.0389-15.9-0.00371-2.02-0.0109-4.05-0.0217-6.07-0.0144-2.83-0.0165-5.66-0.0156-8.48-0.00719-0.844-0.0144-1.69-0.0218-2.56 0.0254-7.09 1.14-8.25 8.24-8.28z" fill="#8F0C80"/>
<path transform="translate(995,771)" d="m0 0c0.495 1.49 0.495 1.49 1 3h2c-0.33 25.4-0.66 50.8-1 77-6.58 0.0206-13.2 0.0412-19.9 0.0625-2.08 0.0091-4.16 0.0182-6.3 0.0276-1.64 0.00292-3.28 0.00547-4.91 0.00757-1.29 0.00767-1.29 0.00767-2.6 0.0155-2.08 3.1e-4 -4.16-0.0507-6.25-0.113-1.66-1.66-1.12-3.67-1.12-5.88 0.0036-0.698 0.00719-1.4 0.0109-2.11-1.46e-4 -0.732-2.92e-4 -1.46-4.43e-4 -2.22 6.99e-4 -2.43 0.00849-4.86 0.0163-7.29 0.00186-1.68 0.00329-3.36 0.00429-5.04 0.00383-4.43 0.0137-8.86 0.0247-13.3 0.0102-4.52 0.0148-9.04 0.0198-13.6 0.0107-8.87 0.0278-17.7 0.0488-26.6h1c0.33 1.98 0.66 3.96 1 6 0.33-1.98 0.66-3.96 1-6 1.32-0.33 2.64-0.66 4-1 0.33 1.65 0.66 3.3 1 5 0.639-0.165 1.28-0.33 1.94-0.5 4.04-0.659 7.98-0.58 12.1-0.5v-3h8c0.33-0.66 0.66-1.32 1-2 1.32 0.66 2.64 1.32 4 2v-2c1.32-0.66 2.64-1.32 4-2z" fill="#A30F81"/>
<path transform="translate(1427 692)" d="m0 0c0.752 0.00719 1.5 0.0144 2.28 0.0218 0.772 4.58e-4 1.54 9.16e-4 2.34 0.00139 1.63 0.00302 3.26 0.0109 4.89 0.0233 2.51 0.0183 5.01 0.0205 7.52 0.0203 1.58 0.00491 3.17 0.0107 4.75 0.0176 1.13 0.00167 1.13 0.00167 2.29 0.00337 5.28 0.0485 5.28 0.0485 6.4 1.16 0.095 2.49 0.126 4.96 0.114 7.46 1.46e-4 0.78 2.92e-4 1.56 4.43e-4 2.36-6.99e-4 2.59-0.00849 5.18-0.0163 7.78-0.00186 1.79-0.00329 3.58-0.00429 5.38-0.00383 4.73-0.0137 9.45-0.0247 14.2-0.0102 4.82-0.0148 9.64-0.0198 14.5-0.0107 9.46-0.0278 18.9-0.0488 28.4-0.66-0.99-1.32-1.98-2-3-3.45 0.414-6.57 0.837-9.83 2.07-4.54 1.33-8.42 0.538-13-0.0781-3.62 0.00453-5.23 0.901-8.12 3-0.33-0.66-0.66-1.32-1-2-0.66 2.64-1.32 5.28-2 8-2.5-3.8-2.28-7.66-2.26-12-0.0035-0.807-0.00701-1.61-0.0106-2.45-0.00879-2.66-0.00298-5.33 0.00378-7.99-0.00135-1.85-0.00329-3.7-0.0058-5.55-0.00295-3.88 0.00134-7.75 0.0107-11.6 0.0114-4.97 0.00482-9.95-0.00714-14.9-0.00721-3.82-0.00493-7.64 2.56e-4 -11.5 0.00134-1.83-3.12e-4 -3.67-0.00496-5.5-0.00506-2.56 0.00264-5.12 0.0138-7.68-0.00405-0.763-0.0081-1.53-0.0123-2.31 0.0529-6.53 1.29-7.7 7.81-7.72z" fill="#8F0C80"/>
<path transform="translate(367 636)" d="m0 0c4.81 4.58 8.32 9 8.8 15.8 0.0245 1.3 0.049 2.61 0.0742 3.95 0.0561 1.94 0.0561 1.94 0.113 3.93-0.622 5.5-2.97 8.48-7.05 12.1-5.77 4.1-12.6 3.39-19.4 2.69-5.53-1.99-8.93-5.15-11.6-10.4-2.28-6.29-2.26-11.1 0.25-17.3 5.5-11.2 17.1-16 28.8-10.8z" fill="#8F0C80"/>
<path transform="translate(426,634)" d="m0 0c3.5 1.5 3.5 1.5 6 4 0.482 0.467 0.964 0.933 1.46 1.41 4.76 5.76 4.51 13.2 4.17 20.3-0.495 4.82-2.21 7.68-5.8 10.9-5 3.6-8.71 4.37-14.8 4.31-7.33-1.3-12.5-4.54-16.9-10.6-2.12-6.47-2.35-13.6 0.5-19.9 5.83-9.95 14.6-11.6 25.4-10.6z" fill="#8F0C80"/>
</svg>
